<?xml version="1.0" encoding="utf-8"?>
<!-- Generator: Adobe Illustrator 22.1.0, SVG Export Plug-In . SVG Version: 6.00 Build 0)  -->
<svg version="1.1" id="Layer_1" xmlns="http://www.w3.org/2000/svg" xmlns:xlink="http://www.w3.org/1999/xlink" x="0px" y="0px"
	 viewBox="0 0 216 216" style="enable-background:new 0 0 216 216;" xml:space="preserve">
<style type="text/css">
	.st0{fill:none;stroke:#3FA9F5;stroke-width:6;stroke-miterlimit:10;}
	.st1{fill:#3FA9F5;}
	.st2{fill:#FFFFFF;}
</style>
<g>
	<path class="st0" d="M139.4,87.9c-39.6,0-71.6,23.4-71.6,52.2c0,12.6,6.3,24.2,16.5,33.3c-5.2,4.1-11.5,8.4-17.7,11
		c-3.9,1.5-3.7,7.4,0.4,8.4c3.7,1.1,7.6,1.7,11.5,1.9c10.4,0.6,23.8,0,35.1-6.3c8,2.4,16.9,3.7,26,3.7c39.6,0,71.6-23.4,71.6-52.2
		S179,87.9,139.4,87.9z"/>
	<g>
		<circle class="st1" cx="170.8" cy="141.1" r="10.4"/>
		<circle class="st1" cx="137.4" cy="141.1" r="10.4"/>
		<circle class="st1" cx="103.9" cy="141.1" r="10.4"/>
	</g>
	<path class="st1" d="M149.1,23.1c-3.7-1.1-7.6-1.7-11.5-1.9c-10.4-0.6-23.8,0-35.1,6.3c-8-2.4-16.9-3.7-26-3.7C37,23.8,5,47.2,5,76
		s32,52.2,71.6,52.2s71.6-23.4,71.6-52.2c0-12.6-6.3-24.2-16.5-33.3c5.2-4.1,11.5-8.4,17.7-11C153.5,30.1,153.2,24.2,149.1,23.1z"/>
	<g>
		<circle class="st2" cx="107.1" cy="74.9" r="10.4"/>
		<circle class="st2" cx="73.8" cy="74.9" r="10.4"/>
		<circle class="st2" cx="40.2" cy="74.9" r="10.4"/>
	</g>
</g>
</svg>
