<?xml version="1.0" encoding="utf-8"?>
<!-- Generator: Adobe Illustrator 22.1.0, SVG Export Plug-In . SVG Version: 6.00 Build 0)  -->
<svg version="1.1" id="Layer_1" xmlns="http://www.w3.org/2000/svg" xmlns:xlink="http://www.w3.org/1999/xlink" x="0px" y="0px"
	 viewBox="0 0 216 216" style="enable-background:new 0 0 216 216;" xml:space="preserve">
<style type="text/css">
	.st0{fill:#CED5E0;}
	.st1{fill:#0364A6;}
	.st2{fill:#3FA9F5;}
</style>
<path class="st0" d="M160.9,196.3c-1.4,0-2.6-1-3.1-2.4l-15.2-56c-1.4-5.5-6.7-9.6-12.5-9.6H85.6c-5.8,0-11.1,3.8-12.5,9.6L58,194.1
	c-0.5,1.7-2.2,2.6-3.8,2.2c-1.7-0.5-2.6-2.2-2.2-3.8l15.2-56c2.2-8.4,9.9-14.2,18.5-14.2h44.7c8.7,0,16.4,5.8,18.5,14.2l15.2,56
	c0.5,1.7-0.5,3.4-2.2,3.8C161.4,196.3,161.2,196.3,160.9,196.3z"/>
<g>
	<rect x="124.4" y="52.4" class="st0" width="5.1" height="69.8"/>
	<rect x="86.6" y="52.4" class="st0" width="5.1" height="69.8"/>
</g>
<path class="st1" d="M142.9,65.2c-22.9,6-46.7,6-69.8,0c-4.6-1.2-7.5-5.8-6.5-9.6c2.4-10.1,4.6-20.2,7-30.3c1-4.1,4.6-6.3,7.9-5.5
	c17.6,4.6,35.6,4.6,52.9,0c3.4-1,7,1.4,7.9,5.5c2.4,10.1,4.6,20.2,7,30.3C150.3,59.4,147.4,64,142.9,65.2z"/>
<path class="st2" d="M211.9,99.1H4.1C1.9,99.1,0,97.2,0,95v-7c0-2.2,1.9-4.1,4.1-4.1h207.8c2.2,0,4.1,1.9,4.1,4.1v7
	C216,97.2,214.1,99.1,211.9,99.1z"/>
<g>
	<rect x="194.1" y="99.1" class="st0" width="6.5" height="97.4"/>
	<rect x="15.4" y="99.1" class="st0" width="6.5" height="97.4"/>
</g>
<path class="st1" d="M108,130.4c-16.1,0-32-2.2-47.6-6.5c-3.8-1-6-5.1-5.1-8.9c1-3.8,5.1-6,8.9-5.1c28.6,7.9,58.9,7.9,87.6,0
	c3.8-1,7.9,1.2,8.9,5.1c1,3.8-1.2,7.9-5.1,8.9C140,128.2,124.1,130.4,108,130.4z"/>
</svg>
