<?xml version="1.0" encoding="utf-8"?>
<!-- Generator: Adobe Illustrator 22.1.0, SVG Export Plug-In . SVG Version: 6.00 Build 0)  -->
<svg version="1.1" id="Layer_1" xmlns="http://www.w3.org/2000/svg" xmlns:xlink="http://www.w3.org/1999/xlink" x="0px" y="0px"
	 viewBox="0 0 216 216" style="enable-background:new 0 0 216 216;" xml:space="preserve">
<style type="text/css">
	.st0{display:none;fill:#324A5E;}
	.st1{fill:#FFFFFF;stroke:#3FA9F5;stroke-width:6;stroke-miterlimit:10;}
	.st2{fill:#3FA9F5;}
	.st3{display:none;}
	.st4{display:inline;fill:#FFFFFF;}
	.st5{fill:#E6E9EE;}
	.st6{fill:#0E346B;}
</style>
<circle class="st0" cx="108" cy="108" r="254"/>
<path class="st1" d="M180.1,5H35.9c-5.6,0-10.3,4.7-10.3,10.3v185.4c0,5.6,4.7,10.3,10.3,10.3h144c5.6,0,10.3-4.7,10.3-10.3V15.3
	C190.4,9.4,185.7,5,180.1,5z"/>
<path class="st2" d="M180.1,5H35.9c-5.6,0-10.3,4.7-10.3,10.3v22.3h164.8V15.3C190.4,9.4,185.7,5,180.1,5z"/>
<g class="st3">
	<circle class="st4" cx="212.8" cy="-33.6" r="12"/>
	<circle class="st4" cx="180.4" cy="-33.6" r="12"/>
	<circle class="st4" cx="148" cy="-33.6" r="12"/>
</g>
<path class="st5" d="M108.2,71.9H50.9c-3.9,0-7.4-3.2-7.4-7.4l0,0c0-3.9,3.2-7.4,7.4-7.4h57.4c3.9,0,7.4,3.2,7.4,7.4l0,0
	C115.4,68.8,112.2,71.9,108.2,71.9z"/>
<circle class="st2" cx="133.5" cy="65.8" r="8.3"/>
<g>
	<path class="st5" d="M135.2,138.9H77.8c-3.9,0-7.4-3.2-7.4-7.4l0,0c0-3.9,3.2-7.4,7.4-7.4h57.4c3.9,0,7.4,3.2,7.4,7.4l0,0
		C142.6,135.7,139.4,138.9,135.2,138.9z"/>
	<path class="st5" d="M136.7,177.4H79.3c-3.9,0-7.4-3.2-7.4-7.4l0,0c0-3.9,3.2-7.4,7.4-7.4h57.4c3.9,0,7.4,3.2,7.4,7.4l0,0
		C144,174,140.6,177.4,136.7,177.4z"/>
	<path class="st5" d="M117.8,104.6H60.4c-3.9,0-7.4-3.2-7.4-7.4l0,0c0-3.9,3.2-7.4,7.4-7.4h57.4c3.9,0,7.4,3.2,7.4,7.4l0,0
		C125.2,101.1,122,104.6,117.8,104.6z"/>
</g>
<circle class="st2" cx="160.7" cy="132.8" r="8.3"/>
<path class="st6" d="M159.7,120.5c-1.2,0-2.5-1-2.5-2.5V67.3h-5.9c-1.2,0-2.5-1-2.5-2.5c0-1.2,1-2.5,2.5-2.5h8.3
	c1.2,0,2.5,1,2.5,2.5v53.5C162.2,119.5,161.2,120.5,159.7,120.5z"/>
</svg>
