<?xml version="1.0" encoding="utf-8"?>
<!-- Generator: Adobe Illustrator 22.1.0, SVG Export Plug-In . SVG Version: 6.00 Build 0)  -->
<svg version="1.1" id="Layer_1" xmlns="http://www.w3.org/2000/svg" xmlns:xlink="http://www.w3.org/1999/xlink" x="0px" y="0px"
	 viewBox="0 0 216 216" style="enable-background:new 0 0 216 216;" xml:space="preserve">
<style type="text/css">
	.st0{fill:#3FA9F5;}
</style>
<g>
	<path class="st0" d="M192.5,211h-169C13.3,211,5,202.7,5,192.5l0.6-26.9C21.1,133.1,45,126.2,46,125.9l1.7-0.2h12.1
		c9.5,0,17.3-7.6,17.7-16.9c-10.7-13.6-18.1-33.4-18.1-49C59.3,23.4,75.7,5,108,5s48.7,18.4,48.7,54.7c0,15.6-7.4,35.4-18.1,49
		c0.4,9.4,8.2,16.9,17.7,16.9l13.8,0.2c1,0.3,24.9,7.2,40.3,39.7l0.6,2.8v24.1C211,202.7,202.7,211,192.5,211z M17.9,169.8v22.7
		c0,3.1,2.5,5.6,5.6,5.6h169c3.1,0,5.6-2.5,5.6-5.6v-22.7c-11.5-23.2-27.3-30-30.8-31.3h-11.1c-16.9,0-30.6-13.7-30.6-30.6v-3.9
		l1.5-1.8c9.6-11.3,16.6-29.2,16.6-42.6c0-29.3-10.7-41.8-35.8-41.8S72.2,30.4,72.2,59.7c0,13.4,7,31.3,16.6,42.6l1.5,1.8v3.9
		c0,16.9-13.7,30.6-30.6,30.6H48.7C45.2,139.9,29.4,146.6,17.9,169.8z"/>
</g>
</svg>
